<svg width="47" height="54" viewBox="0 0 47 54" fill="none" xmlns="http://www.w3.org/2000/svg">
<path d="M45.7455 42.6739H40.6859V21.6584C40.6859 20.8625 40.1244 20.2171 39.4314 20.2171H35.714C35.0211 20.2171 34.4596 20.8625 34.4596 21.6584V42.6739H33.4101V18.1033C33.4101 17.3075 32.8486 16.662 32.1557 16.662H28.4382C27.7453 16.662 27.1838 17.3075 27.1838 18.1033V42.6739H25.3649C25.4067 42.4785 25.4155 42.2741 25.3837 42.0723L20.3034 10.1244C20.1787 9.34152 19.5269 8.82295 18.844 8.96563L12.7191 10.2513C12.7005 10.2553 12.6834 10.2642 12.6654 10.2691C12.5472 10.2268 12.424 10.1973 12.2938 10.1973H6.06724C5.37429 10.1973 4.8128 10.8428 4.8128 11.6386V42.6742H2.50889V9.88488C2.50889 9.08901 1.9474 8.4436 1.25444 8.4436C0.561489 8.4436 0 9.08901 0 9.88488V44.1152C0 44.9111 0.561489 45.5565 1.25444 45.5565H6.06724H12.2935H45.7455C46.4385 45.5565 47 44.9111 47 44.1152C47 43.3193 46.4385 42.6739 45.7455 42.6739ZM13.548 23.4853L16.5993 42.6742H13.548V23.4853Z" fill="black"/>
</svg>
